<svg id="svg2" xmlns="http://www.w3.org/2000/svg" xmlns:xlink="http://www.w3.org/1999/xlink" viewBox="0 0 1024 1024"><defs><style>.cls-1{fill:none;}.cls-2{clip-path:url(#clip-path);}.cls-3{fill:#c1694f;}.cls-4{fill:#fff;}.cls-5{fill:#ccd6dd;}.cls-6{fill:#292f33;}.cls-7{fill:#99aab5;}</style><clipPath id="clip-path"><rect class="cls-1" width="1024" height="1024"/></clipPath></defs><title>only_lines</title><g id="g12"><g id="g14"><g class="cls-2"><g id="g16"><g id="g22"><path id="path24" class="cls-3" d="M889.26,943.16a53.91,53.91,0,0,1-53.89,53.89H188.63a53.91,53.91,0,0,1-53.89-53.89V215.58a53.91,53.91,0,0,1,53.89-53.9H835.37a53.91,53.91,0,0,1,53.89,53.9Z"/></g><g id="g26"><path id="path28" class="cls-4" d="M808.42,889.26a26.92,26.92,0,0,1-26.95,27H242.53a26.94,26.94,0,0,1-26.95-27V269.47a27,27,0,0,1,26.95-26.94H781.47a26.93,26.93,0,0,1,26.95,26.94Z"/></g><g id="g30"><path id="path32" class="cls-5" d="M700.63,107.79H592.84a80.84,80.84,0,0,0-161.68,0H323.37a53.91,53.91,0,0,0-53.9,53.89V296.42H754.53V161.68a53.91,53.91,0,0,0-53.9-53.89"/></g><g id="g34"><path id="path36" class="cls-6" d="M565.89,107.79A53.89,53.89,0,1,1,512,53.89a53.91,53.91,0,0,1,53.89,53.9"/></g><g id="g38"><path id="path40" class="cls-7" d="M565.89,404.21a26.93,26.93,0,0,1-26.94,27H296.42a27,27,0,1,1,0-53.9H539a26.94,26.94,0,0,1,26.94,26.95"/></g><g id="g42"><path id="path44" class="cls-7" d="M754.53,512a27,27,0,0,1-26.95,27H296.42a27,27,0,1,1,0-53.9H727.58A27,27,0,0,1,754.53,512"/></g><g id="g46"><path id="path48" class="cls-7" d="M754.53,619.79a26.93,26.93,0,0,1-26.95,27H296.42a27,27,0,0,1,0-53.9H727.58a26.93,26.93,0,0,1,26.95,26.95"/></g><g id="g50"><path id="path52" class="cls-7" d="M754.53,727.58a26.93,26.93,0,0,1-26.95,26.95H296.42a26.95,26.95,0,0,1,0-53.9H727.58a26.93,26.93,0,0,1,26.95,27"/></g><g id="g54"><path id="path56" class="cls-7" d="M754.53,835.37a26.93,26.93,0,0,1-26.95,27H485.05a27,27,0,0,1,0-53.9H727.58a26.93,26.93,0,0,1,26.95,27"/></g></g></g></g></g></svg>