<?xml version="1.0" encoding="UTF-8"?><!DOCTYPE svg PUBLIC "-//W3C//DTD SVG 1.1//EN" "http://www.w3.org/Graphics/SVG/1.1/DTD/svg11.dtd"><svg xmlns="http://www.w3.org/2000/svg" xmlns:xlink="http://www.w3.org/1999/xlink"><symbol viewBox="0 0 24 24" id="admin-add" xmlns="http://www.w3.org/2000/svg"><path d="M19 20v2.97h-2V20h-3v-2h3v-3h2v3h3v2h-3M12 1l9 4v6c0 .9-.1 1.78-.29 2.65A5.8 5.8 0 0018 13a6 6 0 00-6 6c0 1.36.45 2.62 1.22 3.62L12 23c-5.16-1.26-9-6.45-9-12V5l9-4z"/></symbol><symbol viewBox="0 0 24 24" id="admin-remove" xmlns="http://www.w3.org/2000/svg"><path d="M19.43 19l2.07 2.11-1.38 1.39-2.09-2.09-2.12 2.12-1.41-1.42L16.61 19l-2.11-2.14 1.38-1.39L18 17.59l2.12-2.12 1.43 1.43-2.12 2.1M12 1l9 4v6c0 .9-.1 1.78-.29 2.65A5.8 5.8 0 0018 13a6 6 0 00-6 6c0 1.36.45 2.62 1.22 3.62L12 23c-5.16-1.26-9-6.45-9-12V5l9-4z"/></symbol><symbol viewBox="0 0 24 24" id="chevron-down" xmlns="http://www.w3.org/2000/svg"><path d="M7.41 8.58L12 13.17l4.59-4.59L18 10l-6 6-6-6 1.41-1.42z"/></symbol><symbol viewBox="0 0 24 24" id="delete" xmlns="http://www.w3.org/2000/svg"><path d="M19 4h-3.5l-1-1h-5l-1 1H5v2h14M6 19a2 2 0 002 2h8a2 2 0 002-2V7H6v12z"/></symbol><symbol viewBox="0 0 24 24" id="display-name" xmlns="http://www.w3.org/2000/svg"><path d="M2 3h20c1.05 0 2 .95 2 2v14c0 1.05-.95 2-2 2H2c-1.05 0-2-.95-2-2V5c0-1.05.95-2 2-2m12 3v1h8V6h-8m0 2v1h8V8h-8m0 2v1h7v-1h-7m-6 3.91C6 13.91 2 15 2 17v1h12v-1c0-2-4-3.09-6-3.09M8 6a3 3 0 00-3 3 3 3 0 003 3 3 3 0 003-3 3 3 0 00-3-3z"/></symbol><symbol viewBox="0 0 24 24" id="edit" xmlns="http://www.w3.org/2000/svg"><path d="M20.71 7.04c.39-.39.39-1.04 0-1.41l-2.34-2.34c-.37-.39-1.02-.39-1.41 0l-1.84 1.83 3.75 3.75M3 17.25V21h3.75L17.81 9.93l-3.75-3.75L3 17.25z"/></symbol><symbol viewBox="0 0 24 24" id="email" xmlns="http://www.w3.org/2000/svg"><path d="M20 8l-8 5-8-5V6l8 5 8-5m0-2H4c-1.11 0-2 .89-2 2v12a2 2 0 002 2h16a2 2 0 002-2V6a2 2 0 00-2-2z"/></symbol><symbol viewBox="0 0 24 24" id="expires" xmlns="http://www.w3.org/2000/svg"><path d="M12 20a7 7 0 01-7-7 7 7 0 017-7 7 7 0 017 7 7 7 0 01-7 7m7.03-12.61l1.42-1.42c-.45-.51-.9-.97-1.41-1.41L17.62 6c-1.55-1.26-3.5-2-5.62-2a9 9 0 00-9 9 9 9 0 009 9c5 0 9-4.03 9-9 0-2.12-.74-4.07-1.97-5.61M11 14h2V8h-2m4-7H9v2h6V1z"/></symbol><symbol viewBox="0 0 24 24" id="eye" xmlns="http://www.w3.org/2000/svg"><path d="M12 9a3 3 0 00-3 3 3 3 0 003 3 3 3 0 003-3 3 3 0 00-3-3m0 8a5 5 0 01-5-5 5 5 0 015-5 5 5 0 015 5 5 5 0 01-5 5m0-12.5C7 4.5 2.73 7.61 1 12c1.73 4.39 6 7.5 11 7.5s9.27-3.11 11-7.5c-1.73-4.39-6-7.5-11-7.5z"/></symbol><symbol viewBox="0 0 24 24" id="eye-closed" xmlns="http://www.w3.org/2000/svg"><path d="M11.83 9L15 12.16V12a3 3 0 00-3-3h-.17m-4.3.8l1.55 1.55c-.05.21-.08.42-.08.65a3 3 0 003 3c.22 0 .44-.03.65-.08l1.55 1.55c-.67.33-1.41.53-2.2.53a5 5 0 01-5-5c0-.79.2-1.53.53-2.2M2 4.27l2.28 2.28.45.45C3.08 8.3 1.78 10 1 12c1.73 4.39 6 7.5 11 7.5 1.55 0 3.03-.3 4.38-.84l.43.42L19.73 22 21 20.73 3.27 3M12 7a5 5 0 015 5c0 .64-.13 1.26-.36 1.82l2.93 2.93c1.5-1.25 2.7-2.89 3.43-4.75-1.73-4.39-6-7.5-11-7.5-1.4 0-2.74.25-4 .7l2.17 2.15C10.74 7.13 11.35 7 12 7z"/></symbol><symbol viewBox="0 0 24 24" id="heart" xmlns="http://www.w3.org/2000/svg"><path d="M12 21.35l-1.45-1.32C5.4 15.36 2 12.27 2 8.5 2 5.41 4.42 3 7.5 3c1.74 0 3.41.81 4.5 2.08C13.09 3.81 14.76 3 16.5 3 19.58 3 22 5.41 22 8.5c0 3.77-3.4 6.86-8.55 11.53L12 21.35z"/></symbol><symbol viewBox="0 0 24 24" id="language" xmlns="http://www.w3.org/2000/svg"><path d="M14.6 16.6l4.6-4.6-4.6-4.6L16 6l6 6-6 6-1.4-1.4m-5.2 0L4.8 12l4.6-4.6L8 6l-6 6 6 6 1.4-1.4z"/></symbol><symbol viewBox="0 0 24 24" id="lock" xmlns="http://www.w3.org/2000/svg"><path d="M12 17a2 2 0 002-2 2 2 0 00-2-2 2 2 0 00-2 2 2 2 0 002 2m6-9a2 2 0 012 2v10a2 2 0 01-2 2H6a2 2 0 01-2-2V10a2 2 0 012-2h1V6a5 5 0 015-5 5 5 0 015 5v2h1m-6-5a3 3 0 00-3 3v2h6V6a3 3 0 00-3-3z"/></symbol><symbol viewBox="0 0 24 24" id="open-lock" xmlns="http://www.w3.org/2000/svg"><path d="M18 8a2 2 0 012 2v10a2 2 0 01-2 2H6a2 2 0 01-2-2V10a2 2 0 012-2h9V6a3 3 0 00-3-3 3 3 0 00-3 3H7a5 5 0 015-5 5 5 0 015 5v2h1m-6 9a2 2 0 002-2 2 2 0 00-2-2 2 2 0 00-2 2 2 2 0 002 2z"/></symbol><symbol viewBox="0 0 24 24" id="password" xmlns="http://www.w3.org/2000/svg"><path d="M10 2h4l-.79 7.91 6.45-4.64 2 3.46L14.42 12l7.24 3.27-2 3.46-6.45-4.64L14 22h-4l.79-7.91-6.45 4.64-2-3.46L9.58 12 2.34 8.73l2-3.46 6.45 4.64L10 2z"/></symbol><symbol viewBox="0 0 24 24" id="paste" xmlns="http://www.w3.org/2000/svg"><path d="M19 3h-4.18C14.4 1.84 13.3 1 12 1c-1.3 0-2.4.84-2.82 2H5a2 2 0 00-2 2v14a2 2 0 002 2h14a2 2 0 002-2V5a2 2 0 00-2-2m-7 0a1 1 0 011 1 1 1 0 01-1 1 1 1 0 01-1-1 1 1 0 011-1"/></symbol><symbol viewBox="0 0 24 24" id="question" xmlns="http://www.w3.org/2000/svg"><path d="M15.07 11.25l-.9.92C13.45 12.89 13 13.5 13 15h-2v-.5c0-1.11.45-2.11 1.17-2.83l1.24-1.26c.37-.36.59-.86.59-1.41a2 2 0 00-2-2 2 2 0 00-2 2H8a4 4 0 014-4 4 4 0 014 4 3.2 3.2 0 01-.93 2.25M13 19h-2v-2h2M12 2A10 10 0 002 12a10 10 0 0010 10 10 10 0 0010-10c0-5.53-4.5-10-10-10z"/></symbol><symbol viewBox="0 0 24 24" id="shield" xmlns="http://www.w3.org/2000/svg"><path d="M12 1L3 5v6c0 5.55 3.84 10.74 9 12 5.16-1.26 9-6.45 9-12V5l-9-4z"/></symbol><symbol viewBox="0 0 24 24" id="username" xmlns="http://www.w3.org/2000/svg"><path d="M12 4a4 4 0 014 4 4 4 0 01-4 4 4 4 0 01-4-4 4 4 0 014-4m0 10c4.42 0 8 1.79 8 4v2H4v-2c0-2.21 3.58-4 8-4z"/></symbol><symbol viewBox="0 0 24 24" id="visibility" xmlns="http://www.w3.org/2000/svg"><path d="M17.9 17.39c-.26-.8-1.01-1.39-1.9-1.39h-1v-3a1 1 0 00-1-1H8v-2h2a1 1 0 001-1V7h2a2 2 0 002-2v-.41a7.984 7.984 0 012.9 12.8M11 19.93c-3.95-.49-7-3.85-7-7.93 0-.62.08-1.22.21-1.79L9 15v1a2 2 0 002 2m1-16A10 10 0 002 12a10 10 0 0010 10 10 10 0 0010-10A10 10 0 0012 2z"/></symbol></svg>